<svg id="svg" version="1.1" xmlns="http://www.w3.org/2000/svg" xmlns:xlink="http://www.w3.org/1999/xlink" width="400" height="400" viewBox="0, 0, 400,400"><g id="svgg"><path id="path0" d="M174.603 35.100 C 173.855 35.498,172.803 36.441,172.266 37.195 C 171.729 37.950,170.234 39.795,168.945 41.296 C 165.215 45.640,158.488 54.549,157.422 56.559 C 154.937 61.240,156.161 68.029,159.817 69.843 L 161.625 70.741 188.918 70.727 C 203.929 70.720,216.606 70.820,217.090 70.949 L 217.969 71.185 217.969 91.836 L 217.969 112.487 216.106 113.431 C 205.149 118.983,204.857 135.895,215.612 142.104 C 217.924 143.439,217.956 143.500,217.963 146.568 C 217.970 149.935,219.240 151.620,222.481 152.562 C 228.924 154.435,227.982 162.500,221.320 162.500 C 218.443 162.500,216.946 161.060,216.548 157.913 C 215.787 151.896,207.780 150.958,206.233 156.706 C 204.623 162.682,210.178 171.034,216.699 172.444 C 217.596 172.638,217.969 172.939,217.969 173.469 C 217.969 174.190,217.564 174.219,207.520 174.219 C 191.729 174.220,192.578 173.297,192.578 190.459 C 192.578 201.480,192.515 202.689,191.936 202.803 C 191.584 202.873,188.309 202.878,184.659 202.814 L 178.024 202.698 178.248 201.056 C 179.502 191.847,179.550 169.222,178.346 154.688 C 175.144 116.035,160.963 78.548,141.986 58.571 C 126.199 41.953,125.605 41.791,116.007 51.490 C 93.660 74.073,80.971 100.980,74.434 139.648 C 72.267 152.465,71.300 175.493,72.261 191.406 C 72.462 194.736,72.735 199.395,72.868 201.758 L 73.110 206.055 71.614 208.061 C 70.136 210.042,62.929 221.296,57.617 229.917 C 56.113 232.358,53.229 236.938,51.208 240.094 C 46.044 248.158,46.452 244.894,46.574 277.172 C 46.691 307.825,46.552 306.192,49.139 307.395 C 52.641 309.024,53.191 308.600,71.953 289.804 L 87.785 273.945 88.424 275.937 C 90.162 281.349,91.509 282.432,96.638 282.538 L 100.462 282.617 100.207 284.375 C 100.067 285.342,99.640 288.524,99.258 291.445 C 98.821 294.788,98.323 297.102,97.915 297.685 C 96.253 300.058,97.753 304.759,100.400 305.471 C 101.814 305.852,101.999 306.024,101.789 306.764 C 101.656 307.233,100.130 313.154,98.397 319.922 C 94.612 334.703,93.118 340.419,91.364 346.836 L 90.039 351.680 75.038 351.446 C 58.403 351.185,58.095 351.221,56.651 353.590 C 55.275 355.847,55.917 359.408,57.940 360.733 C 59.390 361.684,240.243 361.668,241.694 360.718 C 244.000 359.206,243.920 352.702,241.584 351.805 C 241.236 351.672,237.978 351.563,234.343 351.563 L 227.734 351.563 227.734 282.422 L 227.734 213.281 236.035 213.238 C 251.852 213.154,250.781 214.584,250.781 193.555 C 250.781 172.746,251.822 174.219,237.125 174.219 C 226.418 174.219,225.637 173.949,229.903 171.719 C 239.944 166.473,239.952 150.033,229.917 144.939 C 226.808 143.361,226.794 143.277,229.441 142.066 C 236.185 138.978,239.189 131.837,237.278 123.436 C 236.223 118.800,232.390 114.038,229.199 113.399 L 228.125 113.184 228.125 91.943 L 228.125 70.703 255.273 70.703 L 282.422 70.703 282.422 197.656 L 282.422 324.609 272.909 324.609 C 258.551 324.609,259.376 323.467,259.377 343.359 C 259.378 358.969,259.401 359.131,261.807 360.708 C 263.253 361.655,351.186 361.760,352.993 360.817 C 355.948 359.274,355.859 359.809,355.859 343.527 C 355.859 327.500,355.857 327.480,353.464 325.895 L 351.817 324.805 343.096 324.686 L 334.375 324.568 334.375 197.615 L 334.375 70.662 345.049 70.780 L 355.723 70.898 357.146 69.814 C 361.658 66.374,360.026 62.261,350.935 54.159 C 348.729 52.194,343.382 47.246,339.051 43.164 C 334.720 39.082,330.621 35.442,329.943 35.075 C 327.945 33.993,176.637 34.017,174.603 35.100 M221.349 44.399 L 233.909 44.656 231.942 47.035 C 230.860 48.343,227.581 51.875,224.655 54.883 L 219.336 60.352 212.700 60.216 C 208.090 60.121,205.764 59.918,205.083 59.551 C 202.692 58.262,190.625 45.614,190.625 44.398 C 190.625 44.069,205.227 44.069,221.349 44.399 M273.843 44.531 L 283.504 44.531 277.662 50.293 C 270.428 57.427,271.122 57.061,268.713 55.005 C 265.434 52.206,257.031 44.458,257.031 44.233 C 257.031 44.118,258.640 44.138,260.607 44.277 C 262.573 44.417,268.530 44.531,273.843 44.531 M326.414 45.098 C 326.533 45.409,327.626 46.477,328.843 47.472 C 332.010 50.060,342.188 59.758,342.188 60.186 C 342.188 60.398,337.926 60.547,331.898 60.547 L 321.609 60.547 317.386 56.543 C 315.064 54.341,311.300 50.739,309.023 48.540 L 304.883 44.541 315.540 44.536 C 324.491 44.532,326.231 44.622,326.414 45.098 M183.119 52.327 C 185.206 54.789,187.685 57.645,188.628 58.675 L 190.341 60.547 178.521 60.547 C 169.130 60.547,166.777 60.447,167.068 60.059 C 174.616 50.006,178.099 46.166,178.800 47.130 C 179.088 47.527,181.032 49.866,183.119 52.327 M252.543 53.951 L 259.180 60.636 246.719 60.403 C 239.865 60.274,234.171 60.083,234.066 59.977 C 233.921 59.833,245.572 47.266,245.850 47.266 C 245.882 47.266,248.893 50.274,252.543 53.951 M301.009 55.562 L 306.119 60.547 293.791 60.547 L 281.463 60.547 283.015 59.277 C 284.509 58.056,288.880 53.577,291.988 50.082 L 293.479 48.406 294.689 49.492 C 295.354 50.089,298.198 52.820,301.009 55.562 M129.387 59.473 C 134.605 64.660,137.654 68.483,143.972 77.758 C 146.822 81.941,151.506 90.460,153.733 95.508 C 154.775 97.871,155.740 99.893,155.878 100.000 C 156.015 100.107,156.244 100.795,156.387 101.528 L 156.646 102.861 142.288 102.603 C 134.391 102.461,120.591 102.345,111.621 102.344 C 98.327 102.344,95.313 102.248,95.313 101.825 C 95.313 100.421,100.570 89.332,103.636 84.269 C 104.537 82.782,105.834 80.616,106.518 79.456 C 110.819 72.173,123.943 56.250,125.646 56.250 C 125.921 56.250,127.604 57.700,129.387 59.473 M316.252 73.730 C 314.865 75.396,312.443 78.012,310.869 79.546 L 308.008 82.333 302.396 76.518 L 296.784 70.703 307.778 70.703 L 318.773 70.703 316.252 73.730 M299.887 88.338 C 301.213 89.870,301.121 90.049,296.490 94.922 L 292.221 99.414 292.204 90.067 L 292.188 80.721 295.590 84.013 C 297.462 85.823,299.395 87.770,299.887 88.338 M324.424 97.952 C 324.195 98.863,315.625 91.020,315.625 89.900 C 315.625 89.712,317.515 87.571,319.824 85.143 L 324.023 80.728 324.342 88.868 C 324.517 93.346,324.554 97.433,324.424 97.952 M311.133 100.497 C 312.422 102.033,315.454 105.224,317.871 107.590 C 323.042 112.650,322.860 111.992,319.859 114.767 C 318.536 115.991,315.454 119.321,313.011 122.168 C 310.568 125.015,308.412 127.344,308.220 127.344 C 308.028 127.344,305.767 125.015,303.195 122.168 C 300.623 119.321,297.443 116.051,296.128 114.901 L 293.737 112.809 299.379 107.001 C 302.482 103.807,305.686 100.398,306.500 99.425 C 308.376 97.180,308.343 97.173,311.133 100.497 M159.853 112.988 C 161.763 114.473,166.542 138.352,168.238 154.883 C 169.353 165.744,168.980 201.460,167.739 202.704 C 167.615 202.828,162.895 202.982,157.249 203.045 C 145.519 203.177,145.590 203.157,145.092 206.476 C 144.227 212.247,146.225 213.276,158.301 213.279 C 163.040 213.280,166.406 213.432,166.406 213.645 C 166.406 215.097,163.342 232.656,161.664 240.820 C 159.988 248.976,154.925 267.942,153.504 271.387 L 153.142 272.266 141.805 272.266 L 130.469 272.266 130.469 245.665 C 130.469 216.219,130.547 217.157,127.961 215.580 C 125.028 213.792,121.589 215.198,120.751 218.527 C 120.449 219.727,120.313 228.341,120.313 246.267 L 120.313 272.266 109.039 272.266 L 97.766 272.266 96.361 267.871 C 83.935 229.025,79.101 180.989,84.027 145.313 C 85.291 136.160,89.186 117.620,90.819 112.988 C 90.955 112.603,98.167 112.500,125.108 112.500 C 151.807 112.500,159.362 112.606,159.853 112.988 M225.351 123.370 C 226.658 124.316,227.734 126.482,227.734 128.164 C 227.734 132.051,222.015 134.437,219.353 131.659 C 215.338 127.468,220.727 120.021,225.351 123.370 M296.456 129.907 C 298.656 132.392,300.778 134.545,301.172 134.693 C 301.768 134.916,301.071 135.798,297.038 139.927 L 292.188 144.893 292.188 135.142 C 292.188 129.779,292.248 125.391,292.322 125.391 C 292.396 125.391,294.256 127.423,296.456 129.907 M324.303 135.233 L 324.191 144.685 320.077 140.604 C 314.692 135.263,314.807 135.522,316.825 133.276 C 319.516 130.280,323.932 125.781,324.182 125.781 C 324.310 125.781,324.364 130.034,324.303 135.233 M120.898 128.691 C 98.808 133.001,91.005 159.915,107.435 175.127 C 126.215 192.514,157.105 175.432,152.191 150.377 C 149.369 135.991,134.895 125.960,120.898 128.691 M129.874 138.881 C 145.020 142.826,147.092 163.416,133.039 170.325 C 118.507 177.468,103.501 162.315,110.332 147.395 C 113.410 140.671,122.141 136.867,129.874 138.881 M316.895 152.040 C 322.896 158.419,322.857 158.338,320.669 159.957 C 319.033 161.168,315.903 164.372,311.033 169.823 L 308.199 172.995 306.169 170.775 C 305.052 169.554,301.766 166.144,298.866 163.198 L 293.594 157.841 298.074 153.237 C 300.538 150.705,303.778 147.258,305.274 145.578 L 307.995 142.522 309.759 144.426 C 310.729 145.474,313.940 148.900,316.895 152.040 M298.263 177.717 L 301.068 180.664 296.628 185.427 L 292.188 190.191 292.188 180.412 L 292.188 170.633 293.822 172.701 C 294.721 173.838,296.720 176.095,298.263 177.717 M324.250 172.559 C 324.332 175.416,324.144 189.658,324.023 189.779 C 323.947 189.856,322.685 188.635,321.219 187.067 C 319.754 185.500,317.776 183.481,316.824 182.582 L 315.092 180.947 319.363 176.254 C 324.037 171.117,324.205 170.990,324.250 172.559 M240.925 193.652 L 240.820 202.930 222.070 202.930 C 211.758 202.930,203.101 202.867,202.832 202.790 C 202.459 202.684,202.344 200.488,202.344 193.513 L 202.344 184.375 221.687 184.375 L 241.030 184.375 240.925 193.652 M308.892 189.355 C 309.318 189.731,311.211 191.797,313.098 193.945 C 314.984 196.094,317.850 199.205,319.465 200.858 L 322.401 203.865 317.744 208.817 C 315.182 211.541,312.011 214.958,310.696 216.411 L 308.307 219.052 301.028 211.510 C 294.438 204.681,293.142 203.125,294.045 203.125 C 294.208 203.125,297.325 199.873,300.971 195.898 C 308.182 188.040,307.778 188.373,308.892 189.355 M217.090 213.137 L 217.969 213.372 217.969 234.788 C 217.969 249.058,217.835 256.287,217.566 256.453 C 216.259 257.261,208.334 250.234,203.019 243.555 C 195.324 233.883,184.446 214.980,185.811 213.651 C 186.469 213.010,214.874 212.543,217.090 213.137 M297.807 223.300 L 301.236 226.874 299.186 229.160 C 298.058 230.417,296.022 232.635,294.661 234.089 L 292.188 236.733 292.188 227.066 L 292.188 217.398 293.282 218.562 C 293.885 219.203,295.921 221.335,297.807 223.300 M324.314 223.925 C 324.258 227.417,324.170 231.748,324.118 233.550 L 324.023 236.827 319.603 231.884 L 315.183 226.940 319.570 222.259 C 321.982 219.685,324.059 217.578,324.185 217.578 C 324.311 217.577,324.369 220.434,324.314 223.925 M177.149 220.996 C 179.629 227.635,194.273 250.193,199.679 255.701 L 202.399 258.472 194.461 258.645 C 175.303 259.061,167.732 258.670,168.153 257.286 C 170.361 250.029,175.011 228.574,175.977 221.191 C 176.303 218.697,176.291 218.699,177.149 220.996 M76.514 228.125 C 78.009 236.214,80.489 248.608,80.852 249.805 C 81.562 252.141,82.815 257.295,83.412 260.327 L 84.021 263.428 79.413 268.063 C 69.763 277.770,58.739 288.636,57.520 289.645 L 56.250 290.694 56.250 270.380 C 56.250 259.207,56.401 250.007,56.585 249.935 C 57.116 249.729,68.750 232.005,68.750 231.403 C 68.750 231.158,73.842 223.402,74.576 222.529 C 75.314 221.650,75.323 221.677,76.514 228.125 M310.352 236.707 C 311.426 237.962,314.502 241.401,317.188 244.348 C 319.873 247.295,322.136 249.880,322.216 250.094 C 322.358 250.473,308.661 264.453,308.147 264.453 C 308.005 264.453,304.780 261.106,300.981 257.014 L 294.075 249.576 296.354 246.971 C 297.607 245.538,300.698 242.261,303.223 239.688 C 305.747 237.116,307.813 234.868,307.813 234.693 C 307.813 233.993,308.488 234.529,310.352 236.707 M301.154 272.325 C 301.164 272.465,299.539 274.311,297.542 276.426 C 295.546 278.542,293.524 280.781,293.050 281.400 L 292.188 282.527 292.197 272.611 L 292.206 262.695 296.671 267.383 C 299.127 269.961,301.144 272.185,301.154 272.325 M324.504 276.073 C 324.454 279.349,324.297 282.030,324.155 282.030 C 323.672 282.032,315.430 272.968,315.430 272.435 C 315.430 272.144,317.363 269.949,319.727 267.558 L 324.023 263.209 324.308 266.663 C 324.465 268.563,324.553 272.797,324.504 276.073 M166.602 268.750 C 168.355 269.644,169.802 269.717,173.237 269.084 C 174.573 268.838,176.131 268.753,176.700 268.896 L 177.734 269.156 177.734 294.106 C 177.734 316.498,177.671 319.081,177.116 319.294 C 176.777 319.425,170.009 319.531,162.077 319.531 L 147.656 319.531 147.656 312.507 L 147.656 305.484 148.730 305.266 C 151.052 304.797,151.760 304.442,152.232 303.509 C 152.909 302.170,152.858 299.178,152.139 298.153 C 151.640 297.440,150.000 285.904,150.000 283.106 C 150.000 282.503,150.433 282.422,153.653 282.422 C 159.538 282.422,162.840 278.473,164.690 269.228 C 164.828 268.535,164.970 267.969,165.005 267.969 C 165.040 267.969,165.759 268.320,166.602 268.750 M217.480 269.335 C 217.864 269.470,217.969 274.862,217.969 294.524 L 217.969 319.540 202.832 319.438 C 191.012 319.358,187.704 319.229,187.734 318.848 C 187.756 318.579,187.800 307.241,187.832 293.652 L 187.890 268.945 202.441 269.054 C 210.444 269.114,217.212 269.240,217.480 269.335 M311.949 284.462 C 313.863 286.658,317.068 290.079,319.070 292.063 L 322.710 295.670 318.645 299.691 C 316.409 301.902,313.131 305.288,311.361 307.215 L 308.142 310.719 305.536 307.963 C 304.102 306.448,300.877 303.009,298.369 300.322 L 293.808 295.437 297.666 291.371 C 299.788 289.134,302.896 285.780,304.571 283.916 C 308.332 279.731,307.790 279.691,311.949 284.462 M140.202 282.759 C 140.383 283.052,140.644 285.074,140.783 287.251 C 140.922 289.429,141.142 292.573,141.271 294.238 L 141.507 297.266 125.209 297.266 L 108.911 297.266 109.157 293.457 C 109.404 289.639,110.098 283.460,110.389 282.490 C 110.622 281.717,139.720 281.980,140.202 282.759 M137.500 313.063 C 137.500 316.482,137.338 319.195,137.126 319.326 C 136.753 319.556,109.391 319.678,109.164 319.450 C 109.014 319.300,111.648 307.852,111.941 307.378 C 112.059 307.187,117.858 307.031,124.828 307.031 L 137.500 307.031 137.500 313.063 M296.680 313.995 C 297.931 315.346,299.436 316.701,300.025 317.005 L 301.096 317.559 297.375 321.475 C 295.328 323.629,293.437 325.391,293.172 325.391 C 292.529 325.391,292.194 321.601,292.190 314.297 L 292.188 308.477 293.297 310.007 C 293.906 310.849,295.429 312.644,296.680 313.995 M324.301 317.187 C 324.170 326.757,324.217 326.681,320.825 322.780 C 319.576 321.343,318.023 319.608,317.373 318.922 L 316.192 317.676 317.705 315.967 C 321.029 312.212,324.034 308.993,324.219 308.988 C 324.326 308.986,324.363 312.675,324.301 317.187 M137.409 340.527 L 137.305 351.367 118.804 351.469 C 101.278 351.565,100.319 351.534,100.583 350.883 C 100.737 350.505,101.445 347.910,102.157 345.117 C 104.525 335.828,105.868 330.669,106.048 330.176 C 106.186 329.796,109.709 329.688,121.869 329.688 L 137.512 329.688 137.409 340.527 M177.148 340.625 L 177.148 351.367 162.402 351.470 L 147.656 351.572 147.656 340.625 L 147.656 329.678 162.402 329.780 L 177.148 329.883 177.148 340.625 M217.878 340.186 C 217.951 347.461,217.851 350.648,217.537 351.026 C 217.174 351.463,214.392 351.563,202.491 351.563 L 187.891 351.563 187.890 347.949 C 187.889 345.962,187.773 341.038,187.632 337.007 L 187.376 329.678 202.575 329.781 L 217.773 329.883 217.878 340.186 M345.975 343.165 L 345.898 351.564 307.617 351.466 L 269.336 351.367 269.225 343.945 C 269.164 339.863,269.211 336.128,269.330 335.645 L 269.546 334.766 307.799 334.766 L 346.052 334.766 345.975 343.165 " stroke="none" fill="#073353" fill-rule="evenodd"></path><path id="path1" d="M90.895 113.184 C 90.603 113.697,89.681 117.760,89.778 118.108 C 89.829 118.291,89.706 118.643,89.504 118.889 C 89.301 119.135,89.049 119.863,88.942 120.508 C 88.835 121.152,88.643 121.943,88.515 122.266 C 88.386 122.588,88.197 123.379,88.094 124.023 C 87.878 125.375,87.403 127.643,86.581 131.250 C 86.263 132.646,85.911 134.316,85.798 134.961 C 85.061 139.179,84.376 143.408,84.194 144.864 C 84.077 145.799,83.903 146.690,83.808 146.845 C 82.800 148.475,81.991 175.653,82.545 189.258 C 82.819 195.992,83.118 199.843,84.210 210.742 C 84.550 214.133,85.933 223.333,86.545 226.274 C 86.869 227.829,87.219 229.717,87.323 230.469 C 87.427 231.221,87.786 233.154,88.121 234.766 C 88.455 236.377,88.779 238.047,88.839 238.477 C 89.087 240.232,89.987 244.248,91.289 249.414 C 92.048 252.422,92.756 255.278,92.864 255.762 C 92.972 256.245,93.191 256.641,93.351 256.641 C 93.510 256.641,93.743 257.476,93.868 258.496 C 94.117 260.531,96.599 268.995,97.523 270.963 L 98.104 272.199 108.426 272.246 C 115.110 272.277,119.024 272.146,119.530 271.875 C 120.301 271.463,120.313 271.066,120.313 245.307 C 120.313 216.473,120.299 216.649,122.685 215.415 C 124.329 214.565,127.034 214.683,128.275 215.659 C 130.548 217.447,130.469 216.374,130.469 245.251 C 130.469 269.092,130.532 271.816,131.087 272.029 C 131.973 272.368,152.455 272.311,152.961 271.967 C 153.416 271.657,156.250 262.552,156.250 261.401 C 156.250 261.017,156.421 260.532,156.629 260.324 C 156.838 260.115,157.075 259.596,157.157 259.171 C 157.238 258.746,157.417 258.135,157.554 257.813 C 157.999 256.766,160.936 244.273,161.009 243.116 C 161.047 242.498,161.203 241.816,161.354 241.602 C 161.504 241.387,161.841 239.893,162.101 238.281 C 162.360 236.670,162.814 234.297,163.107 233.008 C 163.627 230.729,165.811 217.701,166.171 214.733 L 166.351 213.254 158.023 213.296 C 146.447 213.355,145.303 212.883,144.987 207.920 C 144.678 203.073,145.533 202.740,158.278 202.737 C 163.719 202.735,167.627 202.581,167.762 202.362 C 167.889 202.157,168.047 199.813,168.113 197.152 C 168.180 194.492,168.348 192.131,168.487 191.907 C 168.626 191.682,168.752 185.018,168.768 177.097 C 168.796 162.872,168.462 156.052,167.344 148.047 C 167.029 145.791,166.689 143.242,166.589 142.383 C 166.489 141.523,166.141 139.414,165.816 137.695 C 165.490 135.977,165.126 133.818,165.006 132.899 C 164.886 131.980,164.357 129.519,163.829 127.431 C 163.302 125.342,162.773 123.105,162.654 122.461 C 162.365 120.900,160.977 115.582,160.666 114.844 C 160.371 114.143,160.270 113.802,160.205 113.281 C 160.147 112.819,91.158 112.722,90.895 113.184 M129.492 128.512 C 132.382 128.983,137.500 130.541,137.500 130.949 C 137.500 131.115,137.852 131.250,138.281 131.250 C 138.711 131.250,139.063 131.398,139.063 131.578 C 139.063 131.758,139.493 132.102,140.020 132.342 C 141.555 133.042,146.715 138.156,148.109 140.360 C 148.813 141.473,149.501 142.471,149.638 142.578 C 149.775 142.686,150.102 143.433,150.364 144.238 C 150.627 145.044,150.966 145.703,151.118 145.703 C 151.271 145.703,151.414 146.011,151.436 146.387 C 151.459 146.763,151.778 148.389,152.144 150.000 C 152.915 153.385,152.761 161.230,151.896 162.695 C 151.633 163.139,150.628 166.076,150.603 166.471 C 150.593 166.615,150.454 166.864,150.293 167.025 C 150.132 167.186,150.000 167.640,150.000 168.034 C 150.000 168.428,149.852 168.750,149.672 168.750 C 149.491 168.750,148.920 169.343,148.402 170.068 C 144.746 175.186,137.634 180.351,132.769 181.422 C 127.991 182.474,120.594 182.523,117.969 181.521 C 114.689 180.268,111.171 178.363,109.252 176.800 C 108.037 175.810,106.864 175.000,106.646 175.000 C 106.428 175.000,106.250 174.802,106.250 174.559 C 106.250 174.317,105.658 173.463,104.934 172.662 C 103.433 171.000,100.781 166.633,100.781 165.822 C 100.781 165.524,100.628 165.186,100.441 165.070 C 100.254 164.955,99.966 164.285,99.801 163.582 C 99.635 162.880,99.471 162.217,99.435 162.109 C 97.347 155.905,98.796 146.631,102.778 140.703 C 103.398 139.779,103.906 138.953,103.906 138.867 C 103.906 138.020,112.113 131.294,113.184 131.264 C 113.452 131.256,113.672 131.104,113.672 130.924 C 113.672 130.745,113.892 130.579,114.160 130.555 C 114.429 130.531,115.656 130.149,116.887 129.707 C 120.971 128.239,125.300 127.828,129.492 128.512 " stroke="none" fill="#fabd34" fill-rule="evenodd"></path><path id="path2" d="M122.018 59.473 C 116.029 65.641,104.694 80.859,106.088 80.859 C 106.225 80.859,105.967 81.167,105.516 81.543 C 103.631 83.113,94.563 101.409,95.335 102.085 C 95.430 102.168,109.175 102.343,125.879 102.475 L 156.250 102.714 156.250 101.390 C 156.250 100.661,156.112 100.007,155.943 99.935 C 155.774 99.863,154.781 97.871,153.737 95.508 C 149.546 86.026,142.157 74.148,135.391 66.016 C 131.998 61.936,126.323 56.250,125.646 56.250 C 125.371 56.250,123.739 57.700,122.018 59.473 M90.881 112.793 C 90.716 113.058,115.071 113.056,147.266 112.787 C 154.033 112.730,144.156 112.643,125.316 112.592 C 106.476 112.541,90.980 112.632,90.881 112.793 M202.344 193.513 C 202.344 200.488,202.459 202.684,202.832 202.790 C 203.101 202.867,211.758 202.930,222.070 202.930 L 240.820 202.930 240.925 193.652 L 241.030 184.375 221.687 184.375 L 202.344 184.375 202.344 193.513 M153.050 203.026 C 155.694 203.094,159.913 203.094,162.425 203.026 C 164.937 202.958,162.773 202.903,157.617 202.903 C 152.461 202.903,150.406 202.959,153.050 203.026 M74.576 222.529 C 73.842 223.402,68.750 231.158,68.750 231.403 C 68.750 232.005,57.116 249.729,56.585 249.935 C 56.401 250.007,56.250 259.207,56.250 270.380 L 56.250 290.694 57.520 289.645 C 58.739 288.636,69.763 277.770,79.413 268.063 L 84.021 263.428 83.412 260.327 C 82.815 257.295,81.562 252.141,80.852 249.805 C 80.489 248.608,78.009 236.214,76.514 228.125 C 75.323 221.677,75.314 221.650,74.576 222.529 M110.389 282.490 C 110.098 283.460,109.404 289.639,109.157 293.457 L 108.911 297.266 125.209 297.266 L 141.507 297.266 141.271 294.238 C 141.142 292.573,140.922 289.429,140.783 287.251 C 140.644 285.074,140.383 283.052,140.202 282.759 C 139.720 281.980,110.622 281.717,110.389 282.490 " stroke="none" fill="#e24d2d" fill-rule="evenodd"></path><path id="path3" d="M214.777 34.277 C 235.473 34.333,269.223 34.333,289.777 34.277 C 310.331 34.221,293.398 34.176,252.148 34.176 C 210.898 34.176,194.081 34.221,214.777 34.277 M247.656 49.341 C 247.656 49.408,248.228 49.979,248.926 50.611 L 250.195 51.758 249.048 50.488 C 247.979 49.305,247.656 49.039,247.656 49.341 M196.468 51.660 C 197.426 52.681,198.261 53.516,198.324 53.516 C 198.617 53.516,198.307 53.165,196.582 51.546 L 194.727 49.805 196.468 51.660 M234.863 60.045 C 235.454 60.135,236.421 60.135,237.012 60.045 C 237.603 59.956,237.119 59.883,235.938 59.883 C 234.756 59.883,234.272 59.956,234.863 60.045 M215.723 60.436 C 216.313 60.526,217.280 60.526,217.871 60.436 C 218.462 60.347,217.979 60.273,216.797 60.273 C 215.615 60.273,215.132 60.347,215.723 60.436 M330.381 60.443 C 331.300 60.525,332.706 60.524,333.506 60.440 C 334.306 60.356,333.555 60.289,331.836 60.290 C 330.117 60.292,329.463 60.360,330.381 60.443 M155.950 62.109 C 155.950 62.861,156.030 63.169,156.129 62.793 C 156.227 62.417,156.227 61.802,156.129 61.426 C 156.030 61.050,155.950 61.357,155.950 62.109 M178.027 70.996 C 184.956 71.056,196.294 71.056,203.223 70.996 C 210.151 70.936,204.482 70.887,190.625 70.887 C 176.768 70.887,171.099 70.936,178.027 70.996 M299.023 73.047 C 299.863 73.906,300.637 74.609,300.744 74.609 C 300.852 74.609,300.253 73.906,299.414 73.047 C 298.575 72.188,297.800 71.484,297.693 71.484 C 297.586 71.484,298.184 72.188,299.023 73.047 M324.361 94.336 C 324.362 96.484,324.428 97.313,324.507 96.178 C 324.586 95.043,324.586 93.285,324.505 92.272 C 324.425 91.259,324.360 92.188,324.361 94.336 M317.188 107.153 C 317.188 107.221,317.759 107.792,318.457 108.423 L 319.727 109.570 318.579 108.301 C 317.510 107.117,317.188 106.852,317.188 107.153 M293.750 112.622 C 293.750 112.689,294.321 113.261,295.020 113.892 L 296.289 115.039 295.142 113.770 C 294.072 112.586,293.750 112.320,293.750 112.622 M309.546 125.879 L 308.398 127.148 309.668 126.001 C 310.366 125.370,310.938 124.799,310.938 124.732 C 310.938 124.430,310.615 124.696,309.546 125.879 M292.346 135.742 C 292.346 139.180,292.406 140.534,292.478 138.751 C 292.551 136.968,292.551 134.156,292.478 132.501 C 292.404 130.846,292.345 132.305,292.346 135.742 M317.969 138.477 C 319.353 139.873,320.573 141.016,320.681 141.016 C 320.788 141.016,319.743 139.873,318.359 138.477 C 316.975 137.080,315.755 135.938,315.648 135.938 C 315.540 135.938,316.585 137.080,317.969 138.477 M121.289 138.824 C 103.622 143.131,104.920 168.935,122.953 171.913 C 136.069 174.079,146.792 159.841,140.942 148.027 C 137.179 140.426,129.489 136.825,121.289 138.824 M217.677 146.680 C 217.681 147.539,217.761 147.845,217.854 147.359 C 217.948 146.873,217.944 146.170,217.847 145.796 C 217.749 145.423,217.672 145.820,217.677 146.680 M71.992 164.844 C 71.992 166.025,72.065 166.509,72.155 165.918 C 72.244 165.327,72.244 164.360,72.155 163.770 C 72.065 163.179,71.992 163.662,71.992 164.844 M168.856 167.188 C 168.856 168.154,168.933 168.550,169.026 168.066 C 169.119 167.583,169.119 166.792,169.026 166.309 C 168.933 165.825,168.856 166.221,168.856 167.188 M168.841 184.766 C 168.841 185.518,168.921 185.825,169.019 185.449 C 169.118 185.073,169.118 184.458,169.019 184.082 C 168.921 183.706,168.841 184.014,168.841 184.766 M294.708 187.207 L 293.164 188.867 294.824 187.323 C 296.368 185.887,296.664 185.547,296.368 185.547 C 296.305 185.547,295.557 186.294,294.708 187.207 M319.141 200.903 C 319.141 200.971,319.712 201.542,320.410 202.173 L 321.680 203.320 320.532 202.051 C 319.463 200.867,319.141 200.602,319.141 200.903 M316.385 210.059 L 315.039 211.523 316.504 210.177 C 317.310 209.437,317.969 208.778,317.969 208.712 C 317.969 208.414,317.638 208.695,316.385 210.059 M195.605 213.183 C 199.526 213.247,205.942 213.247,209.863 213.183 C 213.784 213.119,210.576 213.067,202.734 213.067 C 194.893 213.067,191.685 213.119,195.605 213.183 M217.677 216.602 C 217.681 217.461,217.761 217.767,217.854 217.281 C 217.948 216.795,217.944 216.092,217.847 215.718 C 217.749 215.345,217.672 215.742,217.677 216.602 M316.186 225.879 L 315.039 227.148 316.309 226.001 C 317.007 225.370,317.578 224.799,317.578 224.732 C 317.578 224.430,317.256 224.696,316.186 225.879 M301.743 241.113 L 299.805 243.164 301.855 241.226 C 302.983 240.159,303.906 239.237,303.906 239.175 C 303.906 238.883,303.544 239.208,301.743 241.113 M217.706 253.711 C 217.708 255.215,217.779 255.782,217.863 254.972 C 217.948 254.161,217.946 252.931,217.860 252.237 C 217.774 251.544,217.705 252.207,217.706 253.711 M308.865 263.489 C 308.262 264.019,307.924 264.453,308.113 264.453 C 308.303 264.453,308.870 264.014,309.375 263.477 C 310.542 262.234,310.284 262.240,308.865 263.489 M292.347 270.703 C 292.347 274.248,292.406 275.698,292.478 273.926 C 292.551 272.153,292.551 269.253,292.478 267.480 C 292.406 265.708,292.347 267.158,292.347 270.703 M174.512 269.026 C 174.995 269.119,175.786 269.119,176.270 269.026 C 176.753 268.933,176.357 268.856,175.391 268.856 C 174.424 268.856,174.028 268.933,174.512 269.026 M324.369 273.438 C 324.369 276.123,324.432 277.222,324.508 275.879 C 324.584 274.536,324.584 272.339,324.508 270.996 C 324.432 269.653,324.369 270.752,324.369 273.438 M298.218 275.488 L 297.070 276.758 298.340 275.611 C 299.038 274.979,299.609 274.408,299.609 274.341 C 299.609 274.039,299.287 274.305,298.218 275.488 M177.517 291.602 C 177.517 298.047,177.570 300.738,177.636 297.583 C 177.701 294.427,177.701 289.154,177.636 285.864 C 177.571 282.574,177.517 285.156,177.517 291.602 M151.465 282.708 C 152.378 282.790,153.872 282.790,154.785 282.708 C 155.698 282.626,154.951 282.558,153.125 282.558 C 151.299 282.558,150.552 282.626,151.465 282.708 M314.453 287.622 C 314.453 287.689,315.024 288.261,315.723 288.892 L 316.992 290.039 315.845 288.770 C 314.775 287.586,314.453 287.320,314.453 287.622 M60.938 300.586 C 59.989 301.553,59.300 302.344,59.408 302.344 C 59.515 302.344,60.379 301.553,61.328 300.586 C 62.277 299.619,62.965 298.828,62.858 298.828 C 62.751 298.828,61.886 299.619,60.938 300.586 M177.480 309.375 C 177.480 311.201,177.548 311.948,177.630 311.035 C 177.712 310.122,177.712 308.628,177.630 307.715 C 177.548 306.802,177.480 307.549,177.480 309.375 M111.974 307.324 C 111.874 307.485,115.599 307.572,120.252 307.518 C 136.170 307.330,137.693 307.199,124.925 307.115 C 117.902 307.069,112.074 307.163,111.974 307.324 M177.455 317.383 C 177.458 318.457,177.534 318.850,177.624 318.256 C 177.714 317.663,177.711 316.784,177.619 316.303 C 177.526 315.823,177.453 316.309,177.455 317.383 M292.313 319.531 C 292.313 320.928,292.383 321.499,292.470 320.801 C 292.557 320.103,292.557 318.960,292.470 318.262 C 292.383 317.563,292.313 318.135,292.313 319.531 M269.260 324.511 C 271.797 324.579,275.840 324.579,278.245 324.510 C 280.650 324.442,278.574 324.386,273.633 324.386 C 268.691 324.387,266.724 324.443,269.260 324.511 M338.204 324.510 C 340.418 324.580,343.934 324.580,346.017 324.510 C 348.100 324.440,346.289 324.383,341.992 324.383 C 337.695 324.383,335.991 324.441,338.204 324.510 M122.168 329.975 C 123.296 330.054,125.142 330.054,126.270 329.975 C 127.397 329.897,126.475 329.832,124.219 329.832 C 121.963 329.832,121.040 329.897,122.168 329.975 M269.323 343.522 C 269.334 350.099,269.427 351.327,269.922 351.462 C 270.347 351.578,270.376 351.528,270.028 351.282 C 269.685 351.038,269.515 348.785,269.429 343.342 L 269.309 335.742 269.323 343.522 M345.703 350.358 C 345.703 350.770,345.483 351.195,345.215 351.304 C 344.923 351.421,345.002 351.513,345.410 351.532 C 345.887 351.553,346.094 351.267,346.094 350.586 C 346.094 350.049,346.006 349.609,345.898 349.609 C 345.791 349.609,345.703 349.946,345.703 350.358 M307.715 351.458 C 308.628 351.540,310.122 351.540,311.035 351.458 C 311.948 351.376,311.201 351.308,309.375 351.308 C 307.549 351.308,306.802 351.376,307.715 351.458 M108.332 361.621 C 132.143 361.677,170.991 361.677,194.660 361.621 C 218.329 361.565,198.848 361.520,151.367 361.520 C 103.887 361.520,84.521 361.565,108.332 361.621 M284.277 361.621 C 294.644 361.679,311.606 361.679,321.973 361.621 C 332.339 361.563,323.857 361.516,303.125 361.516 C 282.393 361.516,273.911 361.563,284.277 361.621 " stroke="none" fill="#3da0d9" fill-rule="evenodd"></path></g></svg>